# xmcd
#
# Track frame offsets: 
#        150
#        16960
#        34117
#        49547
#        66842
#        82320
#        98075
#        114707
#        132121
#        148263
#        164941
#        181763
#        200071
#        220863
#        240208
#        258056
#
# Disc length: 3632 seconds
#
# Revision: 1
# Processed by: cddbd v1.5.2PL0 Copyright (c) Steve Scherf et al.
# Submitted via: ExactAudioCopy v0.95b4
#
DISCID=e40e2e10
DTITLE=Blue - Best of Blue
DYEAR=2004
DGENRE=Pop
TTITLE0=All Rise
TTITLE1=Too Close
TTITLE2=If You Come Back
TTITLE3=Fly By II
TTITLE4=One Love
TTITLE5=Sorry Seems To Be The Hardest Word
TTITLE6=U Make Me Wanna
TTITLE7=Guilty
TTITLE8=Signed Sealed Delivered, I'm Yours
TTITLE9=Breathe Easy
TTITLE10=Bubblin'
TTITLE11=Curtain Falls
TTITLE12=Get Down On It
TTITLE13=One Love, The Sequel
TTITLE14=Love At First Sight
TTITLE15=Best In Me (2004)
EXTD=
EXTT0=
EXTT1=
EXTT2=
EXTT3=
EXTT4=
EXTT5=
EXTT6=
EXTT7=
EXTT8=
EXTT9=
EXTT10=
EXTT11=
EXTT12=
EXTT13=
EXTT14=
EXTT15=
PLAYORDER=
